<svg width="24" height="24" viewBox="0 0 24 24" fill="none" xmlns="http://www.w3.org/2000/svg">
<path d="M21.3227 6.56148L12.0207 1.3125L2.71875 6.56148V17.3916L12.0207 22.6406L21.3227 17.3916V6.56148Z" stroke="#334F85" stroke-width="0.374908"/>
<path d="M11.5 12L3 6.5L11 12.5V21.5H11.5V12Z" fill="#334F85" stroke="#334F85"/>
<path d="M13 13L21 6.5L12.5 12V21.5H13V13Z" fill="#334F85" stroke="#334F85"/>
<path d="M12.0208 11.6776V22.5078M12.0208 11.6776L20.459 6.16284M12.0208 11.6776L3.51611 6.16284" stroke="#334F85" stroke-width="0.374908"/>
<path d="M2.71875 6.69434L10.6254 12.7406V21.7104" stroke="#334F85" stroke-width="0.374908"/>
<path d="M21.3228 6.69434L13.2832 12.8071V21.9097" stroke="#334F85" stroke-width="0.374908"/>
<path d="M6.10742 12.8735H10.5591" stroke="#334F85" stroke-width="0.374908"/>
<path d="M4.64559 12.8735H2.71875" stroke="#334F85" stroke-width="0.374908"/>
<path d="M13.3496 12.8735H17.5355" stroke="#334F85" stroke-width="0.374908"/>
<path d="M18.9307 12.8735H21.2562" stroke="#334F85" stroke-width="0.374908"/>
<path d="M12.0205 8.28907V5.16626" stroke="#334F85" stroke-width="0.374908"/>
<path d="M12.0205 3.5716V1.44543" stroke="#334F85" stroke-width="0.374908"/>
<circle cx="12.0209" cy="9.4185" r="1.00852" fill="#334F85" stroke="#334F85" stroke-width="0.374908"/>
<circle cx="12.0208" cy="4.36892" r="0.742744" fill="#334F85" stroke="#334F85" stroke-width="0.374908"/>
<circle cx="18.2663" cy="12.8735" r="0.609859" fill="#334F85" stroke="#334F85" stroke-width="0.374908"/>
<circle cx="5.37641" cy="12.8735" r="0.609859" fill="#334F85" stroke="#334F85" stroke-width="0.374908"/>
<path d="M12 22.5L11 22H13L12 22.5Z" fill="#334F85" stroke="#334F85" stroke-width="0.2"/>
</svg>
