<svg width="24" height="24" viewBox="0 0 24 24" fill="none" xmlns="http://www.w3.org/2000/svg">
<g clip-path="url(#clip0_18_316)">
<rect width="24" height="24" fill="#334F85"/>
<path d="M32.5076 -2.01015L12.2538 -13.4391L-8 -2.01015V21.5711L12.2538 33L32.5076 21.5711V-2.01015Z" stroke="white" stroke-width="0.816312"/>
<path d="M12.2541 9.12944V18M12.2541 9.12944L30.6272 -2.87817M12.2541 9.12944L-6.26367 -2.87817" stroke="white" stroke-width="1.5"/>
<path d="M-8 -1.72095L9.21574 11.444V19.5" stroke="white" stroke-width="1.5"/>
<path d="M32.5078 -1.72095L15.0027 11.5887V19.5" stroke="white" stroke-width="1.5"/>
<path d="M24.5506 25.9112L12.2536 17.665L-1 25.9112" stroke="white" stroke-width="1.5"/>
<path d="M-2 24L9.07043 11.8781" stroke="white" stroke-width="1.5"/>
<path d="M15.0027 11.8781L26.721 24.7537" stroke="white" stroke-width="1.5"/>
<path d="M12.2539 1.75146V-5.04803" stroke="white" stroke-width="1.5"/>
<circle cx="12.2542" cy="4.21063" r="1.99406" fill="white" stroke="white" stroke-width="1.22"/>
<path d="M12 9L0 2V4.5L9.5 11L0 21.5V24L9.5 19L12.5 17.5L12 9Z" fill="white" stroke="white"/>
<path d="M15 11.5L24 5V1.5L13 9V17.5L23.5 24V21L18.5 16.5L15 11.5Z" fill="white" stroke="white"/>
</g>
<defs>
<clipPath id="clip0_18_316">
<rect width="24" height="24" fill="white"/>
</clipPath>
</defs>
</svg>
