<svg width="24" height="24" viewBox="0 0 24 24" fill="none" xmlns="http://www.w3.org/2000/svg">
<g clip-path="url(#clip0_18_204)">
<path d="M32.5076 -2.01015L12.2538 -13.4391L-8 -2.01015V21.5711L12.2538 33L32.5076 21.5711V-2.01015Z" stroke="#334F85" stroke-width="0.816312"/>
<path d="M12.2541 9.12944V32.7107M12.2541 9.12944L30.6272 -2.87817M12.2541 9.12944L-6.26367 -2.87817" stroke="#334F85" stroke-width="1.5"/>
<path d="M-8 -1.72095L9.21574 11.444V30.9745" stroke="#334F85" stroke-width="1.5"/>
<path d="M32.5078 -1.72095L15 11L15.0027 31.4085" stroke="#334F85" stroke-width="1.5"/>
<path d="M12.2539 1.75152V-5.04797" stroke="#334F85" stroke-width="1.5"/>
<circle cx="12.2542" cy="4.21063" r="1.99406" fill="#334F85" stroke="#334F85" stroke-width="1.22"/>
<path d="M12 9L0 2V4.5L9.5 11V23.5H12V9Z" fill="#334F85" stroke="#334F85"/>
<path d="M14.5 12L24 5V2L13 9.5V23.5H14.5V12Z" fill="#334F85" stroke="#334F85"/>
</g>
<defs>
<clipPath id="clip0_18_204">
<rect width="24" height="24" fill="white"/>
</clipPath>
</defs>
</svg>
