<svg width="512" height="512" viewBox="0 0 512 512" fill="none" xmlns="http://www.w3.org/2000/svg">
<path d="M454.885 139.978L256.442 28L58 139.978V371.022L256.442 483L454.885 371.022V139.978Z" stroke="white" stroke-width="7.99805"/>
<path d="M256.442 249.121V480.165M256.442 249.121L436.458 131.474M256.442 249.121L75.0093 131.474" stroke="white" stroke-width="7.99805"/>
<path d="M58 142.813L226.676 271.801V463.156" stroke="white" stroke-width="7.99805"/>
<path d="M454.885 142.813L283.374 273.218V467.408" stroke="white" stroke-width="7.99805"/>
<path d="M376.925 413.545L256.442 332.751L137.377 413.545" stroke="white" stroke-width="7.99805"/>
<path d="M111.863 400.788L225.259 276.053" stroke="white" stroke-width="7.99805"/>
<path d="M130.29 274.635H225.259" stroke="white" stroke-width="7.99805"/>
<path d="M99.1059 274.635H58" stroke="white" stroke-width="7.99805"/>
<path d="M283.374 276.053L398.187 402.206" stroke="white" stroke-width="7.99805"/>
<path d="M284.791 274.635H374.09" stroke="white" stroke-width="7.99805"/>
<path d="M403.857 274.635H453.467" stroke="white" stroke-width="7.99805"/>
<path d="M256.442 176.832V110.212" stroke="white" stroke-width="7.99805"/>
<path d="M256.442 76.1931V30.8348" stroke="white" stroke-width="7.99805"/>
<circle cx="256.442" cy="200.928" r="21.515" stroke="white" stroke-width="7.99805"/>
<circle cx="256.442" cy="93.2025" r="15.8452" stroke="white" stroke-width="7.99805"/>
<circle cx="389.682" cy="274.635" r="13.0103" stroke="white" stroke-width="7.99805"/>
<circle cx="114.698" cy="274.635" r="13.0103" stroke="white" stroke-width="7.99805"/>
</svg>
