<svg width="1561" height="392" viewBox="0 0 1561 392" fill="none" xmlns="http://www.w3.org/2000/svg">
<path d="M251.578 94.9062V127.25H193.922V296H156.656V127.25H99V94.9062H251.578ZM299.531 221.609C299.531 252.453 311.484 267.875 335.391 267.875C359.297 267.875 371.25 252.453 371.25 221.609C371.25 191.516 359.297 176.469 335.391 176.469C311.484 176.469 299.531 191.516 299.531 221.609ZM262.266 222.172C262.266 172.672 286.641 147.922 335.391 147.922C384.141 147.922 408.516 172.672 408.516 222.172C408.516 271.578 384.141 296.281 335.391 296.281C286.828 296.281 262.453 271.578 262.266 222.172ZM473.906 257.469C483.188 262.531 493.172 265.062 503.859 265.062C526.078 265.062 537.188 249.453 537.188 218.234C537.188 191.703 524.906 178.438 500.344 178.438C489.75 178.438 480.938 179.094 473.906 180.406V257.469ZM436.641 154.391C456.234 150.359 476.953 148.344 498.797 148.344C548.953 148.344 574.031 171.734 574.031 218.516C574.031 270.172 550.688 296 504 296C494.062 296 484.031 293.656 473.906 288.969V349.438H436.641V154.391ZM605.812 296V94.9062H644.484L712.688 247.484L779.484 94.9062H816.75V296H782.297V155.938L727.734 296H695.953L640.266 155.938V296H605.812ZM1177.59 186.875C1169.91 181.812 1160.25 179.281 1148.62 179.281C1125.47 179.281 1113.89 192.266 1113.89 218.234C1113.89 249.078 1125.94 264.5 1150.03 264.5C1159.78 264.5 1168.97 263.141 1177.59 260.422V186.875ZM1214.86 287.141C1192.27 293.047 1170.19 296 1148.62 296C1100.91 296 1077.05 270.406 1077.05 219.219C1077.05 171.969 1100.39 148.344 1147.08 148.344C1157.02 148.344 1167.19 150.688 1177.59 155.375V94.9062H1214.86V287.141ZM1312.31 148.344C1357.12 148.344 1379.53 171.219 1379.53 216.969C1379.53 223.062 1379.11 229.156 1378.27 235.25H1280.25C1280.25 256.062 1295.53 266.469 1326.09 266.469C1341 266.469 1355.91 265.062 1370.81 262.25V291.781C1357.78 294.594 1341.94 296 1323.28 296C1269.75 296 1242.98 270.828 1242.98 220.484C1242.98 172.391 1266.09 148.344 1312.31 148.344ZM1280.25 209.375H1343.25V208.25C1343.25 187.812 1332.94 177.594 1312.31 177.594C1292.62 177.594 1281.94 188.188 1280.25 209.375ZM1444.78 94.9062V296H1407.52V94.9062H1444.78Z" fill="#333F85"/>
<path d="M1050.88 137.112L951.439 81L852 137.112V252.888L951.439 309L1050.88 252.888V137.112Z" stroke="#2D9CDB" stroke-width="4.00781"/>
<path d="M951.439 191.804V307.579M951.439 191.804L1041.64 132.85M951.439 191.804L860.523 132.85" stroke="#2D9CDB" stroke-width="4.00781"/>
<path d="M852 138.533L936.523 203.168V299.056" stroke="#2D9CDB" stroke-width="4.00781"/>
<path d="M1050.88 138.533L964.935 203.879V301.187" stroke="#2D9CDB" stroke-width="4.00781"/>
<path d="M1011.81 274.196L951.439 233.71L891.776 274.196" stroke="#2D9CDB" stroke-width="4.00781"/>
<path d="M878.991 267.804L935.813 205.299" stroke="#2D9CDB" stroke-width="4.00781"/>
<path d="M888.224 204.589H935.813" stroke="#2D9CDB" stroke-width="4.00781"/>
<path d="M872.598 204.589H852" stroke="#2D9CDB" stroke-width="4.00781"/>
<path d="M964.935 205.299L1022.47 268.514" stroke="#2D9CDB" stroke-width="4.00781"/>
<path d="M965.645 204.589H1010.39" stroke="#2D9CDB" stroke-width="4.00781"/>
<path d="M1025.31 204.589H1050.17" stroke="#2D9CDB" stroke-width="4.00781"/>
<path d="M951.439 155.579V122.196" stroke="#2D9CDB" stroke-width="4.00781"/>
<path d="M951.439 105.15V82.4205" stroke="#2D9CDB" stroke-width="4.00781"/>
<circle cx="951.439" cy="167.654" r="10.7811" stroke="#2D9CDB" stroke-width="4.00781"/>
<circle cx="951.439" cy="113.673" r="7.94002" stroke="#2D9CDB" stroke-width="4.00781"/>
<circle cx="1018.21" cy="204.589" r="6.51946" stroke="#2D9CDB" stroke-width="4.00781"/>
<circle cx="880.411" cy="204.589" r="6.51946" stroke="#2D9CDB" stroke-width="4.00781"/>
</svg>
